<svg width="99" height="152" viewBox="0 0 99 152" fill="none" xmlns="http://www.w3.org/2000/svg">
<path d="M27.8887 143.763C27.8887 139.303 37.471 135.673 49.3019 135.673C61.1328 135.673 70.7152 139.303 70.7152 143.763C70.7152 148.224 61.1328 151.854 49.3019 151.854C37.471 151.854 27.8887 148.258 27.8887 143.763Z" fill="url(#paint0_radial_385_684)"/>
<path d="M98.5976 49.235C98.5976 22.0244 76.5271 0 49.3368 0C22.1464 0 0.0759719 22.0589 0.0759719 49.235C0.0759719 49.235 -2.13803 66.3151 17.338 94.1135C26.1247 106.63 49.3368 143.763 49.3368 143.763C49.3368 143.763 72.5835 106.63 81.3702 94.1135C100.812 66.3151 98.5976 49.235 98.5976 49.235Z" fill="#2DA9CE"/>
<path d="M49.3365 85.9884C69.1678 85.9884 85.2443 69.9204 85.2443 50.0994C85.2443 30.2785 69.1678 14.2104 49.3365 14.2104C29.5052 14.2104 13.4287 30.2785 13.4287 50.0994C13.4287 69.9204 29.5052 85.9884 49.3365 85.9884Z" fill="white"/>
<path d="M98.5975 49.2352C98.5975 43.9452 97.7672 38.8627 96.2105 34.0913C96.2797 35.1286 96.3835 36.1658 96.3835 37.2031C96.3835 69.0813 70.5423 94.909 38.6473 94.909C29.8952 94.909 21.5928 92.9036 14.1553 89.4115C15.1239 90.9328 16.1617 92.5233 17.3033 94.1137C26.09 106.63 49.302 143.764 49.302 143.764C49.302 143.764 72.5487 106.63 81.3354 94.1137C100.811 66.3153 98.5975 49.2352 98.5975 49.2352Z" fill="#2DA9CE"/>
<circle cx="51" cy="50" r="10" fill="black"/>
<defs>
<radialGradient id="paint0_radial_385_684" cx="0" cy="0" r="1" gradientUnits="userSpaceOnUse" gradientTransform="translate(49.3195 143.771) scale(21.4525 8.09105)">
<stop stop-color="#A09F9F"/>
<stop offset="0.1846" stop-color="#ABAAAA"/>
<stop offset="0.5094" stop-color="#C8C7C7"/>
<stop offset="0.9337" stop-color="#F7F7F7"/>
<stop offset="1" stop-color="white"/>
</radialGradient>
</defs>
</svg>
